<?xml version="1.0" encoding="iso-8859-1"?>
<!-- Generator: Adobe Illustrator 19.0.0, SVG Export Plug-In . SVG Version: 6.00 Build 0)  -->
<svg version="1.1" id="Capa_1" xmlns="http://www.w3.org/2000/svg" xmlns:xlink="http://www.w3.org/1999/xlink" x="0px" y="0px"
	 viewBox="0 0 512 512" style="enable-background:new 0 0 512 512;" xml:space="preserve">
<linearGradient id="SVGID_1_" gradientUnits="userSpaceOnUse" x1="256.5957" y1="513.2285" x2="256.5957" y2="1.2285" gradientTransform="matrix(0.9981 0 0 -0.9981 -0.0955 512.7271)">
	<stop  offset="0" style="stop-color:#2AF598"/>
	<stop  offset="1" style="stop-color:#009EFD"/>
</linearGradient>
<path style="fill:url(#SVGID_1_);" d="M236.538,76.351h39.922v199.61H124.756v-39.922h111.782V76.351z M472.078,46.409v73.931
	c-18.771-29.96-43.63-55.786-73.296-75.913C356.423,15.689,306.878,0.499,255.501,0.499c-68.247,0-132.408,26.577-180.667,74.834
	C26.577,123.592,0,187.753,0,256s26.577,132.408,74.834,180.667c48.259,48.257,112.42,74.834,180.667,74.834
	c11.111,0,22.295-0.722,33.241-2.145l-5.146-39.589c-9.246,1.202-18.697,1.811-28.094,1.811
	c-118.871,0-215.579-96.708-215.579-215.579S136.631,40.421,255.502,40.421c77.157,0,147.175,40.697,185.603,105.793h-68.833v39.922
	H512V46.409H472.078z M319.227,462.011l11.784,38.143c13.747-4.247,27.234-9.71,40.083-16.239l-18.084-35.591
	C342.178,453.827,330.812,458.432,319.227,462.011z M384.018,429.101l23.824,32.034c11.541-8.584,22.439-18.215,32.39-28.626
	l-28.86-27.584C402.968,413.718,393.764,421.853,384.018,429.101z M434.284,376.505l33.081,22.346
	c8.072-11.95,15.167-24.657,21.091-37.768l-36.382-16.435C447.079,355.704,441.093,366.422,434.284,376.505z M470.321,273.965
	c-0.178,2.129-0.39,4.248-0.627,6.36l0.019,0.001c-1.136,10.102-2.976,20.143-5.511,29.925l38.646,10.013
	c3.605-13.911,6.045-28.256,7.251-42.634l-0.029-0.002c0.106-1.22,0.212-2.439,0.297-3.663L470.321,273.965L470.321,273.965z"/>
<g>
</g>
<g>
</g>
<g>
</g>
<g>
</g>
<g>
</g>
<g>
</g>
<g>
</g>
<g>
</g>
<g>
</g>
<g>
</g>
<g>
</g>
<g>
</g>
<g>
</g>
<g>
</g>
<g>
</g>
</svg>
