<svg id="Layer_1" enable-background="new 0 0 512.001 512.001" height="512" viewBox="0 0 512.001 512.001" width="512" xmlns="http://www.w3.org/2000/svg"><g><g clip-rule="evenodd" fill-rule="evenodd"><g fill="#ffdcd5"><path d="m402.001 86c0 24.196 17.187 44.376 40.016 49.002.531-16.043 13.817-29.002 29.984-29.002 8.154 0 15.576 3.297 20.996 8.625 5.673-8.109 9.004-17.978 9.004-28.626 0-27.614-22.386-50-50-50-27.614.001-50 22.387-50 50.001z"/><path d="m442.001 136.001v40.001h-60.004c-3.097 0-6.087.475-8.903 1.357-12.188 3.816-21.096 15.24-21.096 28.643v30h9.305 80.698 30c16.5 0 30-13.5 30-30 0-20 0-50.001 0-70.001 0-8.346-3.454-15.924-9.003-21.376-5.422-5.327-12.843-8.624-20.998-8.624-16.166 0-29.452 12.959-29.983 29.002-.01.331-.016.664-.016.998z"/><path d="m472.002 236.002h-30v219.998h60v-249.998c-.001 16.5-13.5 30-30 30z"/></g><path d="m351.998 236.002v-30c0-13.403 8.908-24.827 21.096-28.643-2.105-5.014-5.292-9.805-9.769-14.268-16.925-16.872-44.62-16.871-61.545 0-6.784 6.762-16.717 6.06-22.795 0-16.925-16.871-44.62-16.872-61.545 0-15.286 15.237-15.707 34.261-8.341 53.168 14.66 1.94 26.069 14.573 26.069 29.742v10.23c19.083 21.161 42.35 37.485 55.214 40.922 16.74-4.471 51.099-30.769 70.92-61.15h-9.304z" fill="#ff5d7d"/><g><g fill="#ffdcd5"><path d="m85.167 126.001c0 13.463 5.322 25.681 13.975 34.669 4.644-2.954 10.143-4.67 16.025-4.67 12.756 0 23.719 8.069 28.036 19.355 23.794-3.844 41.965-24.476 41.965-49.354 0-27.614-22.386-50-50-50-27.615 0-50.001 22.385-50.001 50z"/><path d="m99.142 160.67c-8.384 5.335-13.976 14.711-13.976 25.33v30.001 15 15c0 16.462 13.437 29.937 29.885 30h.115.241 119.762v-30c0-16.5-13.499-30-30-30h-60.003v-30.001c0-3.744-.695-7.333-1.963-10.646-4.318-11.285-15.281-19.354-28.037-19.354-5.881 0-11.381 1.715-16.024 4.67z"/><path d="m245.166 326h-43.379c8.509 14.709 13.379 31.786 13.379 50.001 0 3.375-.167 6.71-.496 9.999h16.573l10.718 40c4.421 16.5 21.538 30 38.038 30h30l-26.795-100c-4.421-16.501-21.538-30-38.038-30z"/></g><path d="m201.788 326c-17.253-29.825-49.467-49.912-86.381-49.999h-.241c-.038 0-.076 0-.115 0-27.209.031-51.873 10.928-69.885 28.586-18.514 18.149-30 43.44-30 71.414 0 55.229 44.771 100 100 100 51.854 0 94.49-39.467 99.506-90.001.327-3.289.494-6.625.494-9.999 0-18.215-4.87-35.292-13.378-50.001zm-86.622-9.999c33.137 0 60 26.863 60 60s-26.863 60-60 60-60-26.863-60-60 26.863-60 60-60z" fill="#8690af"/><path d="m115.038 276.001c-16.442-.069-29.872-13.542-29.872-30v-15-15-30.001c0-11-9-20-20-20h-20v138.586c18.012-17.658 42.676-28.555 69.885-28.586-.004.001-.009.001-.013.001z" fill="#ff9346"/><circle cx="115.166" cy="376.001" fill="#fff" r="60"/></g></g><g><path d="m115.166 446.001c38.599 0 70-31.402 70-70s-31.401-70-70-70-70 31.402-70 70 31.401 70 70 70zm0-120c27.57 0 50 22.43 50 50s-22.43 50-50 50-50-22.43-50-50 22.43-50 50-50z"/><path d="m115.17 386.001c5.522 0 10-4.477 10-10s-4.478-10-10-10h-.008c-5.522 0-9.996 4.477-9.996 10s4.481 10 10.004 10z"/><path d="m512.001 86c0-33.084-26.916-60-60-60s-60 26.916-60 60c0 25.461 16.449 48.194 40 56.565v23.436h-50.003c-1.175 0-2.336.061-3.486.161-2.246-3.6-4.961-6.999-8.127-10.154-20.861-20.794-54.805-20.794-75.664 0-2.848 2.838-6.521 2.149-8.677 0-20.861-20.795-54.805-20.795-75.664 0-13.556 13.512-18.525 30.609-14.699 49.992h-40.516v-20c0-1.135-.059-2.256-.152-3.367 23.749-8.269 40.153-30.732 40.153-56.632 0-33.084-26.916-60-60-60s-60 26.916-60 60c0 12.014 3.569 23.575 10.164 33.394-.755.845-1.478 1.719-2.159 2.626-5.018-3.778-11.254-6.021-18.005-6.021h-20-35.166c-5.522 0-10 4.477-10 10s4.478 10 10 10h25.166v124.436c-7.177 7.628-13.351 16.359-18.246 26.054-2.489 4.93-.511 10.945 4.42 13.434 4.931 2.49 10.945.51 13.434-4.42 15.416-30.535 46.221-49.503 80.393-49.503 49.626 0 90 40.374 90 90s-40.374 90-90 90c-34.176 0-64.981-18.971-80.396-49.51-2.488-4.93-8.504-6.911-13.434-4.421-4.931 2.488-6.91 8.503-4.422 13.433 18.835 37.316 56.482 60.498 98.251 60.498 53.826 0 98.741-38.862 108.173-90.001h.231l8.732 32.588c5.62 20.979 26.571 37.412 47.697 37.412h30c3.109 0 6.041-1.446 7.934-3.913 1.893-2.466 2.53-5.673 1.726-8.676l-26.795-100c-5.622-20.978-26.573-37.411-47.698-37.411h-37.851c-7.672-11.742-17.522-21.935-28.977-29.999h56.831c4.271 0 7.907-2.683 9.34-6.452 15.492 13.764 31.731 24.176 43.293 27.264.845.226 1.713.339 2.58.339s1.735-.113 2.58-.339c18.555-4.956 52.408-30.725 73.624-60.811h65.414v209.998c0 5.523 4.478 10 10 10h60c5.522 0 10-4.477 10-10v-249.998-70.001c0-8.239-2.506-15.903-6.792-22.273 4.454-8.528 6.793-18.004 6.793-27.728zm-266.835 250c11.894 0 25.154 10.555 28.379 22.588l23.422 87.412h-16.968c-11.894 0-25.155-10.555-28.379-22.588l-10.718-40c-1.171-4.372-5.133-7.412-9.659-7.412h-6.077c0-14.105-2.672-27.597-7.531-40zm166.835-250c0-22.056 17.944-40 40-40s40 17.944 40 40c0 4.833-.865 9.572-2.532 14.024-5.281-2.575-11.208-4.023-17.468-4.023-17.123 0-31.763 10.818-37.457 25.977-13.462-6.588-22.543-20.528-22.543-35.978zm30 100.002c5.522 0 10-4.477 10-10v-40.001c0-11.028 8.972-20 20-20s20 8.972 20 20v70.001c0 11.028-8.972 20-19.999 20h-110.004v-20c0-11.028 8.972-20 20-20zm-306.834-100.001c22.056 0 40 17.944 40 40 0 17.274-10.938 32.254-26.772 37.76-7.186-10.702-19.398-17.76-33.229-17.76-4.635 0-9.083.801-13.226 2.257-4.394-6.544-6.773-14.25-6.773-22.257 0-22.056 17.944-40 40-40zm-60.001 99.999v60.001c0 9.258 3.17 17.785 8.471 24.571-10.125 3.004-19.702 7.437-28.471 13.14v-107.712h10c5.514 0 10 4.486 10 10zm150.003 80.001h-110.003c-11.028 0-20-8.972-20-20v-60.001c0-11.028 8.972-20 20-20s20 8.972 20 20v30.001c0 5.523 4.478 10 10 10h60.004c11.027 0 19.999 8.972 19.999 20zm65.22 20.643c-10.592-4.038-28.983-17.041-45.22-34.321v-6.322c0-18.04-12.006-33.322-28.446-38.292-4.69-15.327-2.143-27.646 7.777-37.536 13.075-13.032 34.349-13.035 47.426 0 10.349 10.316 26.564 10.317 36.915 0 13.075-13.032 34.349-13.035 47.426 0 1.004 1.001 1.927 2.036 2.784 3.095-10.302 7.244-17.053 19.211-17.053 32.733v30c0 2.423.862 4.643 2.295 6.374-17.769 22.08-41.202 39.454-53.904 44.269zm161.612 159.356v-199.998h20.001c7.283 0 14.111-1.966 19.999-5.381v205.379z"/><path d="m25.166 375.993c0-5.523-4.478-10-10-10s-10 4.477-10 10v.007c0 5.523 4.478 9.996 10 9.996s10-4.48 10-10.003z"/></g></g></svg>